<svg width="512" height="512" viewBox="0 0 512 512" fill="none" xmlns="http://www.w3.org/2000/svg">
  <rect width="512" height="512" rx="256" fill="#B6509E"/>
  <path d="M256 139C190.772 139 138 191.772 138 257C138 322.228 190.772 375 256 375C321.228 375 374 322.228 374 257C374 191.772 321.228 139 256 139ZM306.923 257.385L263.538 334.769C262.769 336.308 261.231 337.077 259.692 337.077H253.077C251.538 337.077 250 336.308 249.231 334.769L205.846 257.385C205.077 255.846 205.077 254.308 205.846 252.769L249.231 175.385C250 173.846 251.538 173.077 253.077 173.077H259.692C261.231 173.077 262.769 173.846 263.538 175.385L306.923 252.769C307.692 254.308 307.692 255.846 306.923 257.385Z" fill="white"/>
</svg> 