<svg width="512" height="512" viewBox="0 0 512 512" fill="none" xmlns="http://www.w3.org/2000/svg">
  <rect width="512" height="512" rx="256" fill="#2081E2"/>
  <path d="M389.657 232.94C389.657 228.347 385.916 224.606 381.323 224.606H369.741C365.148 224.606 361.407 228.347 361.407 232.94V244.522C361.407 249.115 365.148 252.855 369.741 252.855H381.323C385.916 252.855 389.657 249.115 389.657 244.522V232.94Z" fill="white"/>
  <path fill-rule="evenodd" clip-rule="evenodd" d="M258.709 131.379C189.412 131.379 133.254 187.537 133.254 256.833C133.254 326.13 189.412 382.288 258.709 382.288C328.005 382.288 384.163 326.13 384.163 256.833C384.163 187.537 328.005 131.379 258.709 131.379ZM173.757 256.833C173.757 210.211 211.585 172.384 258.207 172.384C304.828 172.384 342.656 210.211 342.656 256.833C342.656 303.455 304.828 341.282 258.207 341.282C211.585 341.282 173.757 303.455 173.757 256.833Z" fill="white"/>
  <path d="M208.456 245.551C208.456 225.855 224.411 209.9 244.106 209.9C263.801 209.9 279.756 225.855 279.756 245.551C279.756 265.246 263.801 281.201 244.106 281.201C224.411 281.201 208.456 265.246 208.456 245.551Z" fill="white"/>
</svg> 