<svg width="512" height="512" viewBox="0 0 512 512" fill="none" xmlns="http://www.w3.org/2000/svg">
  <rect width="512" height="512" rx="256" fill="#FF007A"/>
  <path d="M380.344 308.893C373.785 301.761 364.111 297.885 353.293 297.885C339.588 297.885 328.199 304.491 321.641 314.635C315.082 304.491 302.828 297.885 289.123 297.885C278.969 297.885 269.295 301.761 262.736 308.893V300.897H245.508V368.759H262.736V328.718C262.736 313.771 273.84 304.491 287.26 304.491C300.68 304.491 309.67 313.771 309.67 328.718V368.759H326.898V328.718C326.898 313.771 338.002 304.491 351.422 304.491C364.842 304.491 373.832 313.771 373.832 328.718V368.759H391.06V328.718C391.448 321.248 387.287 313.207 380.344 308.893Z" fill="white"/>
  <path d="M201.746 300.897L183.092 342.237L164.438 300.897H145.785L173.074 360.343L159.092 390.326H177.746L216.092 300.897H201.746Z" fill="white"/>
  <circle cx="138.678" cy="304.679" r="14.8701" fill="white"/>
</svg> 